<svg width="55" height="61" viewBox="0 0 55 61" fill="none" xmlns="http://www.w3.org/2000/svg">
<path d="M54.9747 46.8299L54.9687 46.8329L28.9652 60.9945L0.490688 47.0698L0 46.8299L1.47781 17.9226L27.1917 0L27.4756 0.173507L54.088 16.4772L54.9747 46.8299Z" fill="#E22A39"/>
<path opacity="0.3" d="M54.9688 46.8329L28.9653 60.9945L0.490723 47.0698L25.714 29.7747L54.9688 46.8329Z" fill="black"/>
<path opacity="0.1" d="M54.9746 46.8299L25.7139 29.7747L27.4755 0.173523L54.088 16.4772L54.9746 46.8299Z" fill="black"/>
<path d="M1.09928 26.8426L0.954773 26.6426L26.9558 8.69293L54.4221 25.5354L54.2891 25.743L26.9638 8.98703L1.09928 26.8426Z" fill="#F2F2F2"/>
<path d="M0.595329 36.6633L0.454773 36.4608L26.3238 19.2832L26.3916 19.3208L54.4454 34.8714L54.3217 35.0845L26.3357 19.5713L0.595329 36.6633Z" fill="#F2F2F2"/>
<path d="M10.4656 52.0196L10.3337 51.8115L36.4053 36.0111V5.72101H36.6557V36.1475L10.4656 52.0196Z" fill="#F2F2F2"/>
<path d="M20.6987 57.0232L20.5657 56.8158L45.6696 41.4158V11.3964H45.92V41.5513L20.6987 57.0232Z" fill="#F2F2F2"/>
<path d="M45.575 52.0226L16.379 36.157L16.3832 36.0807L17.9201 6.36914L18.1701 6.38162L16.6371 36.0169L45.6967 51.8085L45.575 52.0226Z" fill="#F2F2F2"/>
<path d="M36.3895 57.028L7.52136 42.232L7.52586 42.1535L9.22762 12.4271L9.47764 12.4408L7.78054 42.0884L36.5058 56.811L36.3895 57.028Z" fill="#F2F2F2"/>
</svg>
